REM DIRINDEX 1
REM DIRNAME cjc069
TITLE ""
FILE "Disk2Track04.mp3" MP3
  TRACK 01 AUDIO
    TITLE "1:cjc069_0455"
    INDEX 01 00:00:00
  TRACK 02 AUDIO
    TITLE "1:cjc069_0456"
    INDEX 01 00:02:30
  TRACK 03 AUDIO
    TITLE "1:cjc069_0457"
    INDEX 01 00:06:30
  TRACK 04 AUDIO
    TITLE "1:cjc069_0458"
    INDEX 01 00:12:05
  TRACK 05 AUDIO
    TITLE "1:cjc069_0459"
    INDEX 01 00:19:52
  TRACK 06 AUDIO
    TITLE "0:"
    INDEX 01 00:27:65
